PathFileType	4	(X/Y/Z)	C:/Users/dbak576/Desktop/Duncan Bakke Modelling Files/H24s1/Static_H24s1.trc	
DataRate	CameraRate	NumFrames	NumMarkers	Units	OrigDataRate	OrigDataStartFrame	OrigNumFrames	
200.00	200.00	5	61	mm	200.00	20	32	
Frame#	Time	LFHD			RFHD			LBHD			RBHD			C7			T10			CLAV			STRN			RBack			LASI			RASI			LPSI			RPSI			RACR1			RUA1			RElbow			RElbowM			RFA1			RWRR			RWRU			RCAR			LACR1			LUA1			LElbow			LElbowM			LFA1			LWRR			LWRU			LCAR			RTH1			RTH3			RTH2			RTH4			RLFC			RMFC			RTB1			RTB2			RTB4			RLMAL			RMMAL			RCAL			RMT1			RMT5			RToe			LTH1			LTH3			LTH2			LTH4			LLFC			LMFC			LTB1			LTB3			LTB2			LTB4			LLMAL			LMMAL			LCAL			LMT1			LMT5			LToe			RTB3			
		X1	Y1	Z1	X2	Y2	Z2	X3	Y3	Z3	X4	Y4	Z4	X5	Y5	Z5	X6	Y6	Z6	X7	Y7	Z7	X8	Y8	Z8	X9	Y9	Z9	X10	Y10	Z10	X11	Y11	Z11	X12	Y12	Z12	X13	Y13	Z13	X14	Y14	Z14	X15	Y15	Z15	X16	Y16	Z16	X17	Y17	Z17	X18	Y18	Z18	X19	Y19	Z19	X20	Y20	Z20	X21	Y21	Z21	X22	Y22	Z22	X23	Y23	Z23	X24	Y24	Z24	X25	Y25	Z25	X26	Y26	Z26	X27	Y27	Z27	X28	Y28	Z28	X29	Y29	Z29	X30	Y30	Z30	X31	Y31	Z31	X32	Y32	Z32	X33	Y33	Z33	X34	Y34	Z34	X35	Y35	Z35	X36	Y36	Z36	X37	Y37	Z37	X38	Y38	Z38	X39	Y39	Z39	X40	Y40	Z40	X41	Y41	Z41	X42	Y42	Z42	X43	Y43	Z43	X44	Y44	Z44	X45	Y45	Z45	X46	Y46	Z46	X47	Y47	Z47	X48	Y48	Z48	X49	Y49	Z49	X50	Y50	Z50	X51	Y51	Z51	X52	Y52	Z52	X53	Y53	Z53	X54	Y54	Z54	X55	Y55	Z55	X56	Y56	Z56	X57	Y57	Z57	X58	Y58	Z58	X59	Y59	Z59	X60	Y60	Z60	X61	Y61	Z61	

20	0.095	-62.00059	-241.04422	1700.19604	8.56442	-232.73355	1704.90759	-84.49508	-425.36649	1670.22021	56.75952	-408.48334	1681.53760	-1.33359	-453.93771	1527.73840	4.01404	-523.08771	1289.25024	-15.19840	-308.12115	1462.36670	-20.00357	-241.03664	1299.77209	119.03639	-516.72864	1435.31897	-144.01826	-306.82578	1051.05933	140.24536	-290.68335	1057.23621	-23.20886	-519.37585	1041.39209	55.50797	-511.24521	1044.29419	124.42263	-388.09439	1520.98645	299.72287	-403.78946	1472.68823	439.38098	-381.78430	1410.98853	412.08038	-327.61600	1365.33740	582.32874	-332.65149	1401.09424	680.35535	-232.20961	1473.23254	702.33295	-240.69099	1400.34924	739.99292	-254.65778	1451.02307	-138.38589	-417.75732	1527.23108	-306.11584	-469.51703	1473.84473	-446.85532	-464.76202	1415.57080	-426.22366	-412.83704	1367.81897	-593.88434	-438.84644	1397.83154	-714.46490	-357.93024	1472.20801	-717.94769	-364.12576	1394.15027	-780.15570	-369.62244	1439.31494	212.61804	-352.31805	809.33459	207.19704	-379.70593	620.00006	172.55377	-301.45511	704.03375	214.06833	-362.28177	714.31964	211.73923	-395.36563	507.98938	78.95244	-399.63974	507.80484	150.98428	-363.40485	372.35275	223.59042	-399.18112	285.31769	155.50238	-380.02969	281.15427	222.88600	-451.20114	75.25077	136.78271	-428.41107	91.22170	187.27870	-509.28250	34.90470	156.75685	-316.25003	39.08269	244.13016	-349.77081	24.26680	170.53865	-255.86044	27.09479	-199.60519	-385.01819	804.89697	-189.74730	-424.64258	622.80896	-167.52797	-341.20389	702.45990	-196.61830	-406.01730	713.17896	-189.80463	-454.11261	523.98883	-56.37527	-450.73709	515.30908	-125.75121	-423.77115	382.67252	-147.33432	-436.60565	198.34550	-206.03958	-449.32858	304.21725	-135.47691	-427.76135	294.78607	-201.01932	-484.89706	73.75784	-117.43049	-462.29156	87.84547	-165.89291	-542.21399	25.93247	-142.19186	-340.60834	39.18672	-229.23299	-378.37061	20.78352	-154.44344	-283.17270	25.98290	163.15742	-399.54233	190.06319 
21	0.100	-62.01111	-241.21964	1700.84790	8.52076	-232.68616	1704.92188	-84.49863	-425.33389	1670.16785	56.72116	-408.45819	1681.54382	-1.29844	-453.94492	1527.73352	4.02187	-523.05908	1289.24451	-15.23070	-308.06006	1462.39099	-19.97736	-240.97406	1299.75867	119.05689	-516.66156	1435.30383	-143.98985	-306.81146	1051.06409	140.21724	-290.62708	1057.22290	-23.24172	-519.33411	1041.37341	55.51408	-511.21033	1044.32849	124.42553	-388.02475	1521.00061	299.74637	-403.73312	1472.67566	439.40567	-381.70386	1410.97998	412.08511	-327.60385	1365.34912	582.28662	-332.57675	1401.03491	680.31360	-232.11134	1473.17505	702.31763	-240.59483	1400.27808	740.06238	-254.52034	1450.92407	-138.45035	-417.72882	1527.35620	-306.11575	-469.46313	1473.85132	-446.82019	-464.72083	1415.54504	-426.21777	-412.80542	1367.79272	-593.87372	-438.84409	1397.79260	-714.48499	-357.89090	1472.14148	-717.91187	-364.12756	1394.06799	-780.16248	-369.60605	1439.27234	212.62167	-352.26819	809.34644	207.19740	-379.70731	620.00867	172.54198	-301.39658	704.03473	214.06363	-362.28543	714.33331	211.71265	-395.33878	507.99329	78.95453	-399.64948	507.80219	150.99957	-363.36121	372.37842	223.62640	-399.04373	285.27356	155.47586	-380.05551	281.16754	222.84570	-451.18896	75.21096	136.85332	-428.26715	91.16159	187.18843	-509.34631	34.88389	156.75850	-316.24396	39.07755	244.11946	-349.72498	24.24469	170.54956	-255.83833	27.09302	-199.60109	-385.00873	804.89484	-189.72743	-424.64609	622.80615	-167.53444	-341.20966	702.45337	-196.61488	-406.01993	713.17944	-189.85753	-454.11200	523.86182	-56.48410	-450.94833	515.34827	-125.77834	-423.76920	382.68488	-147.35381	-436.58707	198.32045	-206.03810	-449.33179	304.23746	-135.49574	-427.73468	294.83823	-201.01816	-484.87344	73.74767	-117.41053	-462.29681	87.82732	-165.91757	-542.16187	25.99281	-142.21057	-340.65735	39.24593	-229.22102	-378.39383	20.77177	-154.46503	-283.17526	25.96797	163.10976	-399.56046	190.11690 
22	0.105	-59.65011	-240.71584	1699.04907	8.51623	-232.64503	1704.95105	-84.51876	-425.31171	1670.20068	56.74507	-408.40384	1681.54749	-1.29041	-453.86572	1527.73987	4.01419	-523.01929	1289.24622	-15.27644	-308.00171	1462.39026	-19.96906	-240.96025	1299.75708	119.09099	-516.59149	1435.31995	-143.95677	-306.76364	1051.05640	140.21114	-290.64334	1057.21948	-23.23996	-519.29083	1041.38220	55.54189	-511.16122	1044.31384	124.41816	-387.98483	1521.00134	299.74863	-403.68216	1472.63208	439.40988	-381.64069	1410.96204	412.07510	-327.52588	1365.28589	582.29651	-332.53159	1400.97656	680.29956	-232.03662	1473.15857	702.22198	-240.53639	1400.32458	740.07965	-254.40990	1450.89172	-138.38495	-417.66260	1527.25623	-306.06998	-469.42340	1473.86670	-446.81818	-464.65198	1415.54431	-426.21729	-412.80551	1367.77551	-593.87195	-438.80588	1397.73694	-714.47174	-357.88058	1472.08130	-717.92590	-364.13440	1393.99365	-780.14948	-369.57516	1439.19873	212.61137	-352.24426	809.34753	207.08316	-379.67023	620.36560	172.52086	-301.34109	704.02032	214.06238	-362.26263	714.33899	211.70528	-395.32794	507.98557	78.95506	-399.65118	507.80353	150.92581	-363.35120	372.38153	223.63403	-398.94534	285.26758	155.48499	-380.02118	281.16748	222.81059	-451.16650	75.21722	136.83664	-428.32520	91.15398	187.24707	-509.28696	34.91262	156.78482	-316.25409	39.09069	244.15981	-349.76004	24.26922	170.56050	-255.84370	27.06332	-199.63678	-384.99826	804.88055	-189.75023	-424.62457	622.78967	-167.54166	-341.21381	702.45081	-196.63062	-406.02017	713.17413	-189.81982	-454.11475	523.95648	-56.52740	-451.03900	515.36627	-125.77119	-423.76645	382.70276	-147.41183	-436.55804	198.32961	-206.02971	-449.31848	304.19000	-135.51898	-427.68692	294.88110	-201.01035	-484.85168	73.73981	-117.42448	-462.30466	87.83664	-165.90344	-542.19537	25.95935	-142.17326	-340.49304	39.26649	-229.20070	-378.39709	20.77957	-154.46812	-283.17322	25.95460	163.08220	-399.51224	190.07901 
23	0.110	-61.77495	-240.91878	1700.83105	8.52128	-232.55905	1704.94104	-84.47272	-425.29224	1670.13477	56.78282	-408.34579	1681.53955	-1.27245	-453.80270	1527.69678	4.01618	-523.00470	1289.25012	-15.25179	-307.94373	1462.36035	-19.96669	-240.96832	1299.74048	119.10777	-516.53009	1435.31091	-143.41966	-306.61908	1050.37793	140.20856	-290.62341	1057.22156	-23.21571	-519.24109	1041.38794	55.54828	-511.14240	1044.30017	124.44665	-387.93170	1521.02612	299.72971	-403.61438	1472.62085	439.36267	-381.56467	1410.88928	412.05139	-327.47885	1365.20984	582.66705	-332.62091	1400.93445	680.30695	-231.96861	1473.13135	701.84955	-239.53221	1400.21240	740.06720	-254.27626	1450.83606	-138.35576	-417.56659	1527.23340	-306.10025	-469.37662	1473.80603	-446.81161	-464.62933	1415.49866	-426.21692	-412.82465	1367.72388	-593.86896	-438.78976	1397.67615	-714.50562	-357.86865	1472.02405	-717.90887	-364.13669	1393.92664	-780.11731	-369.52490	1439.12866	212.59306	-352.19510	809.36206	207.17809	-379.69263	620.17719	172.52467	-301.32938	704.03247	214.05229	-362.23660	714.33557	211.71484	-395.32129	507.99384	78.95440	-399.64755	507.80515	150.88837	-363.35004	372.36572	223.54922	-399.12759	285.32864	155.51077	-379.99481	281.16251	222.80434	-451.15744	75.22660	136.88605	-428.32004	91.04247	187.33405	-509.21310	34.92069	156.77165	-316.26553	39.08428	243.78513	-349.71283	24.36522	170.54478	-255.84515	27.03656	-199.65155	-384.99527	804.87341	-189.78189	-424.60785	622.79523	-167.54738	-341.20541	702.45050	-196.60997	-405.95059	713.14984	-189.79501	-454.11841	523.98816	-56.55292	-451.04654	515.32330	-125.76731	-423.72403	382.70563	-147.23013	-436.41901	198.30696	-206.02557	-449.33682	304.21115	-135.56792	-427.69836	294.85831	-201.01944	-484.88354	73.73008	-117.42861	-462.30365	87.85894	-165.88713	-542.13135	25.96143	-142.10831	-340.68216	39.27002	-229.28539	-378.36810	20.72860	-154.47632	-283.18274	25.94987	163.11282	-399.45190	189.94548 
24	0.115	-63.43205	-241.23070	1701.54053	8.52521	-232.57005	1704.94800	-84.43905	-425.22372	1670.08960	56.76671	-408.28806	1681.55212	-1.27832	-453.74750	1527.67896	4.04769	-522.97412	1289.26758	-15.28487	-307.88052	1462.32153	-19.96499	-240.93405	1299.73901	119.09782	-516.44757	1435.32800	-143.17953	-306.57724	1050.16711	140.21617	-290.58667	1057.22913	-23.19057	-519.18085	1041.38513	55.48313	-511.16330	1044.32263	124.43407	-387.87131	1521.01294	299.86966	-403.45114	1472.53235	439.37970	-381.52341	1410.85718	412.07169	-327.33200	1365.17737	582.47223	-332.44229	1400.90491	680.29724	-231.92625	1473.07935	701.46240	-238.65373	1400.07324	740.09381	-254.14288	1450.74243	-138.34708	-417.47617	1527.20422	-306.06955	-469.31372	1473.78418	-446.78732	-464.59433	1415.47864	-426.17847	-412.80981	1367.71948	-593.85657	-438.77835	1397.63806	-714.51288	-357.85956	1471.92590	-717.92944	-364.12552	1393.87769	-780.11188	-369.50439	1439.00659	212.58246	-352.17078	809.31281	207.22728	-379.71075	620.01184	172.55255	-301.32993	704.02722	214.04860	-362.22708	714.32587	211.71484	-395.30280	508.02634	78.94460	-399.63889	507.79196	150.92316	-363.34506	372.34891	223.53717	-399.24271	285.34833	155.48816	-380.03235	281.13968	222.81841	-451.15994	75.20480	136.88580	-428.31567	91.00407	187.28445	-509.18936	34.88630	156.75471	-316.24423	39.10322	243.94093	-349.66025	24.30728	170.54015	-255.84608	26.99790	-199.65053	-384.99594	804.87311	-190.04732	-424.73703	622.78351	-167.57309	-341.17844	702.46851	-196.64616	-405.97806	713.17596	-189.82062	-454.09009	523.99316	-56.50786	-451.02521	515.31464	-125.76573	-423.73004	382.68460	-147.29573	-436.52826	198.29395	-206.10513	-449.35162	304.18268	-135.53709	-427.69891	294.81708	-200.99405	-484.91724	73.73106	-117.43681	-462.28384	87.84232	-165.89279	-542.09961	26.00522	-142.04863	-340.72723	39.21714	-229.27277	-378.33994	20.75430	-154.46869	-283.18274	25.97272	163.37138	-399.31281	189.94341 
